<?xml version="1.0" standalone="no"?>
<!DOCTYPE svg PUBLIC "-//W3C//DTD SVG 1.1//EN" "http://www.w3.org/Graphics/SVG/1.1/DTD/svg11.dtd">
<svg xmlns="http://www.w3.org/2000/svg" xmlns:inkscape="http://www.inkscape.org/namespaces/inkscape" xmlns:xlink="http://www.w3.org/1999/xlink" viewBox = "0 0 1140 376" version = "1.1">
<!-- svg generated using QGIS www.qgis.org -->
<g id="albufeira_svg_—_albufeira" inkscape:groupmode="layer" inkscape:label="albufeira_svg_—_albufeira">
<g stroke="rgb(35,35,35)" fill="rgb(100,116,139)" stroke-linejoin="round" stroke-width="0.40">
<g id="albufeira_svg_—_albufeira_1" inkscape:label="ALBUFEIRA">
<path d="M 453,364 L 452,364 L 453,364 L 453,363 L 453,364 " />
<path d="M 432,364 L 432,365 L 431,365 L 431,364 L 431,363 L 432,363 L 432,364 " />
<path d="M 456,364 L 455,363 L 456,363 L 455,363 L 456,363 L 456,364 " />
<path d="M 457,363 L 457,362 L 457,363 " />
<path d="M 447,363 L 447,362 L 447,363 " />
<path d="M 445,363 L 445,362 L 446,362 L 446,361 L 446,362 L 445,362 L 445,363 " />
<path d="M 435,361 L 434,361 L 435,361 " />
<path d="M 462,361 L 462,360 L 462,361 " />
<path d="M 470,360 L 469,360 L 469,359 L 470,359 L 470,360 " />
<path d="M 463,360 L 463,359 L 463,360 " />
<path d="M 473,355 L 473,354 L 473,355 " />
<path d="M 491,348 L 491,347 L 492,347 L 492,348 L 491,348 " />
<path d="M 561,338 L 560,338 L 561,338 " />
<path d="M 561,338 L 560,338 L 561,338 " />
<path d="M 562,338 L 562,337 L 562,338 " />
<path d="M 563,338 L 563,337 L 563,338 " />
<path d="M 567,334 L 567,333 L 567,334 " />
<path d="M 568,333 L 567,332 L 568,332 L 568,333 " />
<path d="M 592,331 L 591,331 L 592,331 " />
<path d="M 571,9 L 571,10 L 572,10 L 573,10 L 574,10 L 575,10 L 576,11 L 577,11 L 577,12 L 577,13 L 577,14 L 578,14 L 579,14 L 580,13 L 581,13 L 581,14 L 582,14 L 583,14 L 583,15 L 584,15 L 585,15 L 586,15 L 586,14 L 587,14 L 587,15 L 587,16 L 587,17 L 588,17 L 588,16 L 589,16 L 590,16 L 591,16 L 591,17 L 592,17 L 593,17 L 593,19 L 593,20 L 594,21 L 596,21 L 597,21 L 598,21 L 599,21 L 600,21 L 601,22 L 602,22 L 603,22 L 603,23 L 604,23 L 606,23 L 608,24 L 609,24 L 609,25 L 610,25 L 610,26 L 611,26 L 611,27 L 612,27 L 612,28 L 613,28 L 614,29 L 616,30 L 617,30 L 618,30 L 619,31 L 620,31 L 621,32 L 622,32 L 622,33 L 623,33 L 624,33 L 625,33 L 626,33 L 627,34 L 628,34 L 629,34 L 630,34 L 631,34 L 632,35 L 633,35 L 634,35 L 635,36 L 636,36 L 637,37 L 638,37 L 639,37 L 640,38 L 641,38 L 642,38 L 643,39 L 644,39 L 645,39 L 645,40 L 647,41 L 648,41 L 649,42 L 650,42 L 650,43 L 651,43 L 652,44 L 653,44 L 654,44 L 654,45 L 655,45 L 656,45 L 657,46 L 658,47 L 659,47 L 660,47 L 660,48 L 661,48 L 662,48 L 663,48 L 664,48 L 665,49 L 667,49 L 670,49 L 672,49 L 673,49 L 674,49 L 675,50 L 676,50 L 677,50 L 678,51 L 679,51 L 680,51 L 681,51 L 682,51 L 683,51 L 685,51 L 686,52 L 687,52 L 689,53 L 690,54 L 691,55 L 693,56 L 693,58 L 693,62 L 693,66 L 693,69 L 693,70 L 694,73 L 697,77 L 698,78 L 701,82 L 702,83 L 703,82 L 704,82 L 704,81 L 705,81 L 706,80 L 707,79 L 708,79 L 708,78 L 709,78 L 709,79 L 710,79 L 710,80 L 709,81 L 709,84 L 709,85 L 709,86 L 709,87 L 710,87 L 710,88 L 711,88 L 712,88 L 713,88 L 713,89 L 713,90 L 713,91 L 713,92 L 713,93 L 712,93 L 712,94 L 712,95 L 712,96 L 712,97 L 711,97 L 711,98 L 711,100 L 711,101 L 710,101 L 710,102 L 710,103 L 709,103 L 709,104 L 708,104 L 708,105 L 707,105 L 707,106 L 707,107 L 706,107 L 705,108 L 704,109 L 704,110 L 704,111 L 703,112 L 703,113 L 704,113 L 704,114 L 704,115 L 704,116 L 703,116 L 704,117 L 704,118 L 704,119 L 704,120 L 703,120 L 702,120 L 701,120 L 700,120 L 699,120 L 698,120 L 697,120 L 697,121 L 697,122 L 697,124 L 696,124 L 696,125 L 696,126 L 695,126 L 695,127 L 696,127 L 696,128 L 695,131 L 695,133 L 694,135 L 693,138 L 693,139 L 692,140 L 692,141 L 692,142 L 691,143 L 690,142 L 691,144 L 691,146 L 691,147 L 691,148 L 692,148 L 693,150 L 691,150 L 691,151 L 690,151 L 689,151 L 689,152 L 688,152 L 688,153 L 687,153 L 687,154 L 687,155 L 687,156 L 687,157 L 687,158 L 687,159 L 686,159 L 686,158 L 684,158 L 683,157 L 682,159 L 682,160 L 682,161 L 681,162 L 680,162 L 680,163 L 680,164 L 680,165 L 680,166 L 681,166 L 681,167 L 681,168 L 681,169 L 681,170 L 682,170 L 682,171 L 682,172 L 682,173 L 682,174 L 682,175 L 682,176 L 681,177 L 681,178 L 682,178 L 681,179 L 681,180 L 681,181 L 680,182 L 680,183 L 679,183 L 678,184 L 678,185 L 677,185 L 676,185 L 676,186 L 675,186 L 674,186 L 674,187 L 673,187 L 672,187 L 671,187 L 670,187 L 669,188 L 668,189 L 667,189 L 666,189 L 666,190 L 665,191 L 665,192 L 664,192 L 663,192 L 662,193 L 662,194 L 661,194 L 660,194 L 660,195 L 659,195 L 658,196 L 657,196 L 656,196 L 656,197 L 656,198 L 656,199 L 655,199 L 654,199 L 654,200 L 653,200 L 653,201 L 653,202 L 653,203 L 653,204 L 653,205 L 654,206 L 654,207 L 655,207 L 655,208 L 656,208 L 657,208 L 657,209 L 658,210 L 659,210 L 659,211 L 660,211 L 660,212 L 661,212 L 661,211 L 662,211 L 662,210 L 663,210 L 664,210 L 666,211 L 666,212 L 667,212 L 668,213 L 669,213 L 669,214 L 669,215 L 668,215 L 667,216 L 666,216 L 666,217 L 665,217 L 665,218 L 664,218 L 664,219 L 663,220 L 663,221 L 662,221 L 662,222 L 661,222 L 661,223 L 660,224 L 660,225 L 659,227 L 659,228 L 658,228 L 658,229 L 657,229 L 657,230 L 657,231 L 657,232 L 657,233 L 656,233 L 655,233 L 655,234 L 654,234 L 653,234 L 652,234 L 652,235 L 651,235 L 651,236 L 649,235 L 648,234 L 647,234 L 646,234 L 645,234 L 644,234 L 645,234 L 645,233 L 645,232 L 644,231 L 644,232 L 643,232 L 643,231 L 642,231 L 642,230 L 641,230 L 641,229 L 641,228 L 640,228 L 639,228 L 639,227 L 638,227 L 638,226 L 637,226 L 636,227 L 635,226 L 634,226 L 634,227 L 633,227 L 632,227 L 631,227 L 631,228 L 631,229 L 632,229 L 632,230 L 632,231 L 632,232 L 633,232 L 633,233 L 633,234 L 633,235 L 634,236 L 635,237 L 633,237 L 633,238 L 633,239 L 632,240 L 632,239 L 632,240 L 631,240 L 631,241 L 631,242 L 630,243 L 631,243 L 632,243 L 633,246 L 633,247 L 634,247 L 635,247 L 635,248 L 635,250 L 635,253 L 635,254 L 636,254 L 636,253 L 636,252 L 637,253 L 638,254 L 639,255 L 640,256 L 639,256 L 638,257 L 638,258 L 639,258 L 640,258 L 641,257 L 642,257 L 643,257 L 644,257 L 646,257 L 647,257 L 648,258 L 648,259 L 649,259 L 649,260 L 649,261 L 649,262 L 649,263 L 648,264 L 649,265 L 649,266 L 649,267 L 650,268 L 650,269 L 650,270 L 650,271 L 651,271 L 652,272 L 653,272 L 656,274 L 657,274 L 658,275 L 659,275 L 660,275 L 661,275 L 662,275 L 663,275 L 664,275 L 665,274 L 667,274 L 670,274 L 671,273 L 673,273 L 675,273 L 676,273 L 677,273 L 679,273 L 682,274 L 683,274 L 683,275 L 684,275 L 686,275 L 688,275 L 689,275 L 690,275 L 691,275 L 692,275 L 693,276 L 694,276 L 696,275 L 698,275 L 699,275 L 700,275 L 701,275 L 702,275 L 703,275 L 703,276 L 704,276 L 705,276 L 706,276 L 707,276 L 707,277 L 708,277 L 708,276 L 709,276 L 710,276 L 710,275 L 711,275 L 712,275 L 713,275 L 714,275 L 715,275 L 716,275 L 716,276 L 717,276 L 717,277 L 718,277 L 718,278 L 718,279 L 717,280 L 716,281 L 715,281 L 714,282 L 713,282 L 712,282 L 712,283 L 711,283 L 711,284 L 710,284 L 709,284 L 709,285 L 708,285 L 708,286 L 708,287 L 708,288 L 707,288 L 707,289 L 707,290 L 706,290 L 706,291 L 705,291 L 705,292 L 705,293 L 705,294 L 705,295 L 705,296 L 706,296 L 706,297 L 706,298 L 706,299 L 707,299 L 707,300 L 707,301 L 708,301 L 708,302 L 709,302 L 709,303 L 710,303 L 710,304 L 711,304 L 711,305 L 712,305 L 712,306 L 713,306 L 713,307 L 714,307 L 714,308 L 715,308 L 715,309 L 716,309 L 716,310 L 717,310 L 717,311 L 718,311 L 718,312 L 719,312 L 719,313 L 720,313 L 720,314 L 721,314 L 722,314 L 722,315 L 723,315 L 723,316 L 724,316 L 724,317 L 725,317 L 725,318 L 726,318 L 726,319 L 727,319 L 727,320 L 728,320 L 728,321 L 729,321 L 729,322 L 730,322 L 730,323 L 731,323 L 732,324 L 733,325 L 734,326 L 735,327 L 736,327 L 736,328 L 737,328 L 737,329 L 738,329 L 738,330 L 739,330 L 739,331 L 740,331 L 740,332 L 741,332 L 741,333 L 742,333 L 742,334 L 743,334 L 743,335 L 744,335 L 744,336 L 745,336 L 746,337 L 747,338 L 748,338 L 748,339 L 749,339 L 749,340 L 750,340 L 750,341 L 751,341 L 751,342 L 752,342 L 752,343 L 753,343 L 753,344 L 754,344 L 754,345 L 755,345 L 755,346 L 756,346 L 756,347 L 757,347 L 757,348 L 758,348 L 758,349 L 759,349 L 759,350 L 760,350 L 760,351 L 761,351 L 761,352 L 762,352 L 763,353 L 763,354 L 764,354 L 764,355 L 765,355 L 765,356 L 766,356 L 767,356 L 767,357 L 767,356 L 767,359 L 766,359 L 763,358 L 759,356 L 753,354 L 749,353 L 747,352 L 746,351 L 743,350 L 742,350 L 740,349 L 739,349 L 737,348 L 735,348 L 734,347 L 732,346 L 731,346 L 730,345 L 729,345 L 727,344 L 724,344 L 721,343 L 719,342 L 713,339 L 708,338 L 705,337 L 702,335 L 700,335 L 699,335 L 697,334 L 696,333 L 694,333 L 692,332 L 690,331 L 688,330 L 687,330 L 685,329 L 683,329 L 682,328 L 681,328 L 679,327 L 678,326 L 677,326 L 676,325 L 674,324 L 673,324 L 671,323 L 669,322 L 665,320 L 661,320 L 659,319 L 658,319 L 657,319 L 656,319 L 655,319 L 654,318 L 653,318 L 653,319 L 652,319 L 652,320 L 651,320 L 650,320 L 649,320 L 649,321 L 648,321 L 647,321 L 646,321 L 645,321 L 644,321 L 643,321 L 642,321 L 641,321 L 640,321 L 639,321 L 639,322 L 638,322 L 638,323 L 637,323 L 636,323 L 635,323 L 635,324 L 634,324 L 633,324 L 632,324 L 631,324 L 631,325 L 630,325 L 630,324 L 629,324 L 628,324 L 628,323 L 627,323 L 626,323 L 625,323 L 624,323 L 623,322 L 622,322 L 621,322 L 620,322 L 619,322 L 618,322 L 617,322 L 616,322 L 615,322 L 614,322 L 613,322 L 612,322 L 612,323 L 611,323 L 611,324 L 610,324 L 609,324 L 608,324 L 608,325 L 608,324 L 608,325 L 607,325 L 606,325 L 605,325 L 604,325 L 603,325 L 603,324 L 602,324 L 602,325 L 602,324 L 601,324 L 600,324 L 600,325 L 599,325 L 598,325 L 597,325 L 596,325 L 596,326 L 595,326 L 594,326 L 593,327 L 592,327 L 592,328 L 591,328 L 591,329 L 591,330 L 591,331 L 590,331 L 590,332 L 589,332 L 588,332 L 587,332 L 588,332 L 588,333 L 587,333 L 588,333 L 588,334 L 587,334 L 586,334 L 586,333 L 585,333 L 584,333 L 583,333 L 583,332 L 582,332 L 581,332 L 580,332 L 579,332 L 579,331 L 578,331 L 577,331 L 576,331 L 576,330 L 575,330 L 574,330 L 573,330 L 572,330 L 571,330 L 570,330 L 569,330 L 569,331 L 568,331 L 568,332 L 567,332 L 567,333 L 566,333 L 566,334 L 566,335 L 565,335 L 565,336 L 565,335 L 564,335 L 563,335 L 563,336 L 562,336 L 562,337 L 563,337 L 562,337 L 562,338 L 561,338 L 561,337 L 561,338 L 561,337 L 560,337 L 559,337 L 559,338 L 558,338 L 558,337 L 558,338 L 557,338 L 557,337 L 557,336 L 556,336 L 555,336 L 554,336 L 553,336 L 553,335 L 552,335 L 551,335 L 550,335 L 550,334 L 549,334 L 548,334 L 547,334 L 547,333 L 546,333 L 545,333 L 545,332 L 544,332 L 543,332 L 542,332 L 542,331 L 541,331 L 540,331 L 539,331 L 539,330 L 538,330 L 537,330 L 536,330 L 535,330 L 535,329 L 534,329 L 533,329 L 532,329 L 531,329 L 530,329 L 529,329 L 529,331 L 529,329 L 529,328 L 528,328 L 527,328 L 526,328 L 525,328 L 524,328 L 523,328 L 522,328 L 521,328 L 520,328 L 519,328 L 518,328 L 518,329 L 517,329 L 516,329 L 516,330 L 515,330 L 515,331 L 516,331 L 516,332 L 516,333 L 516,332 L 516,333 L 515,333 L 514,333 L 514,334 L 513,334 L 513,335 L 513,334 L 513,335 L 512,335 L 511,335 L 510,335 L 510,336 L 510,339 L 510,343 L 510,344 L 509,344 L 508,344 L 507,344 L 506,344 L 505,343 L 504,343 L 503,343 L 503,344 L 503,345 L 502,345 L 502,344 L 501,344 L 500,344 L 500,345 L 499,345 L 498,345 L 498,346 L 497,346 L 497,347 L 496,347 L 496,346 L 495,346 L 494,346 L 494,347 L 494,346 L 493,346 L 493,347 L 492,347 L 491,347 L 491,346 L 490,346 L 490,347 L 489,347 L 488,347 L 487,347 L 487,348 L 487,349 L 486,349 L 486,350 L 486,349 L 485,349 L 485,350 L 484,350 L 485,350 L 485,349 L 484,349 L 484,350 L 484,349 L 483,349 L 483,350 L 482,350 L 481,350 L 480,350 L 479,350 L 478,350 L 477,350 L 476,351 L 477,351 L 478,351 L 477,351 L 476,351 L 475,351 L 475,352 L 474,353 L 474,354 L 473,354 L 472,354 L 472,355 L 473,355 L 472,355 L 471,355 L 472,355 L 471,355 L 471,356 L 471,357 L 471,358 L 470,358 L 470,359 L 469,359 L 469,358 L 469,357 L 468,357 L 467,357 L 466,357 L 465,357 L 464,358 L 463,358 L 462,358 L 462,359 L 462,360 L 461,360 L 461,361 L 460,361 L 461,361 L 461,362 L 460,362 L 460,361 L 460,360 L 459,360 L 458,360 L 458,361 L 458,362 L 457,362 L 457,361 L 457,360 L 456,360 L 456,361 L 456,362 L 455,362 L 455,363 L 455,364 L 455,363 L 454,363 L 454,362 L 455,362 L 454,362 L 453,362 L 452,362 L 453,362 L 453,361 L 452,361 L 451,361 L 450,361 L 450,362 L 451,362 L 451,363 L 450,363 L 449,363 L 449,362 L 449,361 L 448,361 L 447,361 L 446,361 L 445,361 L 444,361 L 444,362 L 444,361 L 443,361 L 442,361 L 442,362 L 441,362 L 441,361 L 441,360 L 440,360 L 440,359 L 439,359 L 438,359 L 438,360 L 437,360 L 437,359 L 436,359 L 436,360 L 435,360 L 435,361 L 435,360 L 434,360 L 434,361 L 433,361 L 433,362 L 433,363 L 432,363 L 431,363 L 431,362 L 431,361 L 430,361 L 429,361 L 428,361 L 427,361 L 427,362 L 427,361 L 426,361 L 426,362 L 425,362 L 425,361 L 424,361 L 424,362 L 423,362 L 423,361 L 423,362 L 423,361 L 422,361 L 422,360 L 422,359 L 421,359 L 422,359 L 422,358 L 421,358 L 420,358 L 420,357 L 420,358 L 419,358 L 419,357 L 418,357 L 418,356 L 417,356 L 416,356 L 416,355 L 416,356 L 415,356 L 415,355 L 414,355 L 413,355 L 412,355 L 412,356 L 412,355 L 412,356 L 411,356 L 411,355 L 411,356 L 410,356 L 410,355 L 411,355 L 410,355 L 410,354 L 409,354 L 409,353 L 408,353 L 407,353 L 407,352 L 406,352 L 406,351 L 405,351 L 405,350 L 404,350 L 403,350 L 403,349 L 402,349 L 402,348 L 401,348 L 400,347 L 399,347 L 399,346 L 398,346 L 398,345 L 397,345 L 397,344 L 396,344 L 395,343 L 394,343 L 394,342 L 393,342 L 393,341 L 392,341 L 392,340 L 391,340 L 391,339 L 390,339 L 389,339 L 389,338 L 388,338 L 388,337 L 387,337 L 387,336 L 386,336 L 385,335 L 384,335 L 384,334 L 383,333 L 382,333 L 382,332 L 381,332 L 381,331 L 380,331 L 379,331 L 379,330 L 378,330 L 378,329 L 377,329 L 376,329 L 376,328 L 375,328 L 375,327 L 374,327 L 374,326 L 373,326 L 373,325 L 372,325 L 372,324 L 371,324 L 371,323 L 370,323 L 370,322 L 370,321 L 370,320 L 371,320 L 371,318 L 371,317 L 371,316 L 371,315 L 371,314 L 370,314 L 370,313 L 370,312 L 370,311 L 370,310 L 370,309 L 371,308 L 371,307 L 371,306 L 372,305 L 372,304 L 372,303 L 372,302 L 372,301 L 372,300 L 373,300 L 373,299 L 373,298 L 374,294 L 375,293 L 375,292 L 375,291 L 374,290 L 374,288 L 374,287 L 374,286 L 374,285 L 374,284 L 375,284 L 375,283 L 376,283 L 376,282 L 377,282 L 378,281 L 379,280 L 379,279 L 380,279 L 380,278 L 380,277 L 381,277 L 381,276 L 381,275 L 381,274 L 381,273 L 382,272 L 383,272 L 383,271 L 384,271 L 384,270 L 384,269 L 384,268 L 384,267 L 385,267 L 385,266 L 386,266 L 386,265 L 387,265 L 387,264 L 387,263 L 388,263 L 388,262 L 388,261 L 389,261 L 390,261 L 390,260 L 391,260 L 391,259 L 391,258 L 392,258 L 392,257 L 392,256 L 393,256 L 393,255 L 393,254 L 393,253 L 393,252 L 394,252 L 394,251 L 394,250 L 394,249 L 394,248 L 394,247 L 394,246 L 394,245 L 394,244 L 395,244 L 395,243 L 395,242 L 396,242 L 395,242 L 395,241 L 396,241 L 396,240 L 395,240 L 395,239 L 395,238 L 396,238 L 396,237 L 396,236 L 396,235 L 396,234 L 396,233 L 396,232 L 396,231 L 397,231 L 397,230 L 397,229 L 398,229 L 398,228 L 399,228 L 399,227 L 399,226 L 399,225 L 399,224 L 399,225 L 400,225 L 400,224 L 400,223 L 400,222 L 400,221 L 401,221 L 401,220 L 402,220 L 402,219 L 402,218 L 402,217 L 402,216 L 403,216 L 403,215 L 403,214 L 404,214 L 404,213 L 404,212 L 404,211 L 404,210 L 404,209 L 404,208 L 405,208 L 405,207 L 405,206 L 406,206 L 406,205 L 406,204 L 407,204 L 407,203 L 407,202 L 408,201 L 409,200 L 409,199 L 410,199 L 411,199 L 412,199 L 413,199 L 412,198 L 412,197 L 412,195 L 411,194 L 412,194 L 412,193 L 413,193 L 413,192 L 414,192 L 415,192 L 416,192 L 417,192 L 418,191 L 419,192 L 420,192 L 421,192 L 422,191 L 423,191 L 424,191 L 425,191 L 426,191 L 427,190 L 428,190 L 429,190 L 430,190 L 431,190 L 432,190 L 433,190 L 433,189 L 434,189 L 434,190 L 435,190 L 436,190 L 436,189 L 436,190 L 437,190 L 438,190 L 439,190 L 442,190 L 443,190 L 444,190 L 445,190 L 446,190 L 447,190 L 447,189 L 449,189 L 449,188 L 450,187 L 450,189 L 451,189 L 452,189 L 453,188 L 454,189 L 455,190 L 456,189 L 457,188 L 457,187 L 456,187 L 457,187 L 458,186 L 458,185 L 459,185 L 460,185 L 461,185 L 461,186 L 462,185 L 463,186 L 464,186 L 466,186 L 467,186 L 468,186 L 469,186 L 470,186 L 471,186 L 471,187 L 472,187 L 473,187 L 474,187 L 475,187 L 476,187 L 477,187 L 477,188 L 478,189 L 478,190 L 479,190 L 479,191 L 480,191 L 480,192 L 481,192 L 481,193 L 482,193 L 483,193 L 484,193 L 485,193 L 486,193 L 487,193 L 487,194 L 488,194 L 489,194 L 490,194 L 491,195 L 492,195 L 492,194 L 493,194 L 493,193 L 494,192 L 495,192 L 496,192 L 497,191 L 498,191 L 499,191 L 499,190 L 500,190 L 501,189 L 501,188 L 502,188 L 503,188 L 504,188 L 506,188 L 507,188 L 508,188 L 509,188 L 510,188 L 511,188 L 511,187 L 512,187 L 513,187 L 514,187 L 515,187 L 516,186 L 517,186 L 517,185 L 517,184 L 517,183 L 518,183 L 519,183 L 520,183 L 521,183 L 521,184 L 522,185 L 523,185 L 525,186 L 525,185 L 525,184 L 525,183 L 526,184 L 527,184 L 527,185 L 527,186 L 527,185 L 528,185 L 529,185 L 529,184 L 530,184 L 529,184 L 531,182 L 531,183 L 532,183 L 532,182 L 533,182 L 534,181 L 535,180 L 537,178 L 538,177 L 539,177 L 539,176 L 539,175 L 540,174 L 540,173 L 541,173 L 541,172 L 542,171 L 542,170 L 543,169 L 543,168 L 543,167 L 544,167 L 543,167 L 543,166 L 542,165 L 542,164 L 542,163 L 541,163 L 540,163 L 540,162 L 541,162 L 541,161 L 541,160 L 541,159 L 541,158 L 542,157 L 542,156 L 541,154 L 541,153 L 540,153 L 540,152 L 540,151 L 539,150 L 538,148 L 537,147 L 536,146 L 534,144 L 532,142 L 531,140 L 529,139 L 529,138 L 530,137 L 530,136 L 531,133 L 529,132 L 529,131 L 530,131 L 530,129 L 530,128 L 530,127 L 529,127 L 529,126 L 530,126 L 531,126 L 532,126 L 532,124 L 531,121 L 531,120 L 530,118 L 529,118 L 529,117 L 529,116 L 529,115 L 529,114 L 529,115 L 530,115 L 531,115 L 532,114 L 532,113 L 532,112 L 533,112 L 533,111 L 533,110 L 533,109 L 533,108 L 533,107 L 533,106 L 532,106 L 532,104 L 532,103 L 532,102 L 533,98 L 534,96 L 535,94 L 535,93 L 535,91 L 535,90 L 535,88 L 535,87 L 535,86 L 535,84 L 535,82 L 535,80 L 535,79 L 535,78 L 535,77 L 535,76 L 535,75 L 535,73 L 535,71 L 535,70 L 537,70 L 538,69 L 540,69 L 541,69 L 542,69 L 542,67 L 542,66 L 542,65 L 541,63 L 541,61 L 541,60 L 542,60 L 543,60 L 544,60 L 545,60 L 545,59 L 546,59 L 546,58 L 547,58 L 547,57 L 548,57 L 548,56 L 548,55 L 548,54 L 549,54 L 549,53 L 549,52 L 549,51 L 550,51 L 550,50 L 550,49 L 550,48 L 551,47 L 551,46 L 551,45 L 552,45 L 552,44 L 552,43 L 552,42 L 553,42 L 553,41 L 553,40 L 554,39 L 554,38 L 554,37 L 554,36 L 554,35 L 555,33 L 555,31 L 555,30 L 555,29 L 556,27 L 556,26 L 556,25 L 556,23 L 557,22 L 557,21 L 557,20 L 557,19 L 557,18 L 557,17 L 557,16 L 557,15 L 557,14 L 558,13 L 558,12 L 558,11 L 559,10 L 560,10 L 561,10 L 562,10 L 562,9 L 563,9 L 564,9 L 565,9 L 566,9 L 567,9 L 568,9 L 568,8 L 568,9 L 569,9 L 570,9 L 571,9 " />
</g>
</g>
</g>
</svg>
